<?xml version="1.0" encoding="utf-8"?>
<!-- Generator: Adobe Illustrator 16.0.0, SVG Export Plug-In . SVG Version: 6.00 Build 0)  -->
<!DOCTYPE svg PUBLIC "-//W3C//DTD SVG 1.1//EN" "http://www.w3.org/Graphics/SVG/1.1/DTD/svg11.dtd">
<svg version="1.1" id="Layer_1" xmlns="http://www.w3.org/2000/svg" xmlns:xlink="http://www.w3.org/1999/xlink" x="0px" y="0px"
	 width="1500px" height="1500px" viewBox="0 0 1500 1500" enable-background="new 0 0 1500 1500" xml:space="preserve">
<g>
	<g>
		<rect x="278.371" y="331.317" fill="#C56BAA" width="926.065" height="858.863"/>
		<polygon fill="#C56BAA" points="749.005,1347.244 86.847,746.946 733.486,132.316 1395.672,732.303 		"/>
	</g>
	<path fill="#69B1E1" d="M187.198,254.773v62.909c0,56.231-19.523,87.498-70.345,87.498c-50.506,0-70.392-31.267-70.392-87.498
		V79.407h694.922v238.274c0,56.231-19.615,87.498-70.391,87.498c-50.566,0-70.348-31.267-70.348-87.498v-62.909H464.312v1100.444
		c0,55.918-19.6,87.19-70.39,87.19c-50.528,0-70.389-31.272-70.389-87.19V254.773H187.198z"/>
	<path fill="#7BC253" d="M1159.012,1355.221c0,55.914-19.939,87.187-70.287,87.187c-50.397,0-70.294-31.272-70.294-87.187V794.105
		L741.384,345.881V166.925c0-55.905,19.379-87.512,70.394-87.512c50.835,0,70.399,31.606,70.399,87.512v119.132l206.548,334.75
		l206.801-334.75V166.925c0-55.905,19.365-87.512,70.379-87.512c50.847,0,70.391,31.606,70.391,87.512v178.956l-277.283,448.225
		V1355.221z"/>
</g>
</svg>
