<?xml version="1.0" encoding="utf-8"?>
<!-- Generator: Adobe Illustrator 16.0.0, SVG Export Plug-In . SVG Version: 6.00 Build 0)  -->
<!DOCTYPE svg PUBLIC "-//W3C//DTD SVG 1.1//EN" "http://www.w3.org/Graphics/SVG/1.1/DTD/svg11.dtd">
<svg version="1.1" id="Layer_1" xmlns="http://www.w3.org/2000/svg" xmlns:xlink="http://www.w3.org/1999/xlink" x="0px" y="0px"
	 width="851px" height="992px" viewBox="0 0 612 792" enable-background="new 0 0 612 792" xml:space="preserve">
<path fill="#368FCE" d="M99.486,236.062v17.586c0,15.633-6.339,24.426-22.639,24.426c-16.299,0-22.637-8.793-22.637-24.426v-66.44
	h223.666v66.44c0,15.633-6.338,24.426-22.639,24.426c-16.299,0-22.639-8.793-22.639-24.426v-17.586h-43.917v306.793
	c0,15.632-6.339,24.426-22.638,24.426c-16.299,0-22.639-8.794-22.639-24.426V236.062H99.486z"/>
<path fill="#4BB749" d="M444.146,542.855c0,15.632-6.34,24.426-22.64,24.426s-22.639-8.794-22.639-24.426V386.526l-89.194-125.061
	v-49.83c0-15.633,6.338-24.427,22.64-24.427c16.3,0,22.638,8.794,22.638,24.427v33.219l66.556,93.309l66.559-93.309v-33.219
	c0-15.633,6.338-24.427,22.635-24.427c16.301,0,22.639,8.794,22.639,24.427v49.83l-89.192,125.061V542.855z"/>
</svg>
