<?xml version="1.0" encoding="utf-8"?>
<!-- Generator: Adobe Illustrator 16.0.0, SVG Export Plug-In . SVG Version: 6.00 Build 0)  -->
<!DOCTYPE svg PUBLIC "-//W3C//DTD SVG 1.1//EN" "http://www.w3.org/Graphics/SVG/1.1/DTD/svg11.dtd">
<svg version="1.1" id="Layer_1" xmlns="http://www.w3.org/2000/svg" xmlns:xlink="http://www.w3.org/1999/xlink" x="0px" y="0px"
	 width="612px" height="792px" viewBox="0 0 612 792" enable-background="new 0 0 612 792" xml:space="preserve">
<text transform="matrix(0.8418 0 0 1 41 553.293)"><tspan x="100" y="100" fill="#48A1D9" font-family="'OCRAStd'" font-size="1000pt">T</tspan><tspan x="331.534" y="0" fill="#72BF44" font-family="'OCRAStd'" font-size="72pt">Y</tspan></text>
	<g>
		<g>
			<g>
				
					<linearGradient id="SVGID_1_" gradientUnits="userSpaceOnUse" x1="-92.9109" y1="290.615" x2="969.881" y2="290.615" gradientTransform="matrix(0.0057 1 -1 0.0057 595.0988 351.1766)">
					<stop  offset="0.0015" style="stop-color:#DA8CFF"/>
					<stop  offset="1" style="stop-color:#9A55FF"/>
				</linearGradient>
				<path fill="url(#SVGID_1_)" d="M310.334,441.726l33.551-74.789c0.855-1.906,0.844-3.965-0.029-5.858l-34.322-74.369
					c-1.021-2.211-3.197-3.621-5.364-3.608c-2.31,0.015-4.324,1.452-5.323,3.676l-33.696,74.788
					c-0.428,0.953-0.567,1.904-0.562,3.014c0.004,0.95,0.154,2.055,0.594,3.003l34.32,74.37c1.023,2.209,3.052,3.621,5.362,3.607
					C307.174,445.386,309.332,443.949,310.334,441.726z M277.152,364.342l27.128-60.023l27.603,59.684l-26.986,60.022
					L277.152,364.342z"/>
			</g>
		</g>
		<g>
			<g>
				<g>
					
						<linearGradient id="SVGID_2_" gradientUnits="userSpaceOnUse" x1="43.4719" y1="571.1482" x2="1050.9427" y2="571.1482" gradientTransform="matrix(-0.9621 0.003 0.003 0.9621 439.7012 -201.3785)">
						<stop  offset="0.0015" style="stop-color:#DA8CFF"/>
						<stop  offset="1" style="stop-color:#9A55FF"/>
					</linearGradient>
					<path fill="url(#SVGID_2_)" d="M231.205,370.322c1.454,3.163,5.069,4.578,8.096,2.983l65.173-36.171l65.375,35.725
						c2.891,1.572,6.5,0.292,8.08-3.038c1.434-3.169,0.268-7.126-2.77-8.855l-68.125-36.982c-0.869-0.469-1.733-0.626-2.745-0.624
						c-0.866,0.003-1.876,0.167-2.742,0.643l-67.913,37.444C230.896,363.199,229.752,367.162,231.205,370.322z"/>
				</g>
			</g>
			<g>
				<g>
					
						<linearGradient id="SVGID_3_" gradientUnits="userSpaceOnUse" x1="208.9592" y1="703.5974" x2="1216.4221" y2="703.5974" gradientTransform="matrix(0.9621 0 0 -0.9621 8.4189 1066.5336)">
						<stop  offset="0.0015" style="stop-color:#DA8CFF"/>
						<stop  offset="1" style="stop-color:#9A55FF"/>
					</linearGradient>
					<path fill="url(#SVGID_3_)" d="M377.912,367.989c-1.445-3.166-5.057-4.59-8.088-3.009l-65.273,35.948l-65.274-35.787
						c-2.888-1.584-6.497-0.318-8.085,3.009c-1.445,3.167-0.29,7.123,2.744,8.865l68.018,37.21c0.864,0.477,1.732,0.633,2.744,0.633
						c0.863,0,1.875-0.156,2.742-0.633l67.873-37.367C378.201,375.272,379.358,371.316,377.912,367.989z"/>
				</g>
			</g>
		</g>
	</g>
</svg>
