<?xml version="1.0" encoding="utf-8"?>
<!-- Generator: Adobe Illustrator 16.0.0, SVG Export Plug-In . SVG Version: 6.00 Build 0)  -->
<!DOCTYPE svg PUBLIC "-//W3C//DTD SVG 1.1//EN" "http://www.w3.org/Graphics/SVG/1.1/DTD/svg11.dtd">
<svg version="1.1" id="Layer_1" xmlns="http://www.w3.org/2000/svg" xmlns:xlink="http://www.w3.org/1999/xlink" x="0px" y="0px"
	 width="1290.55px" height="941.891px" viewBox="0 0 1290.55 941.891" enable-background="new 0 0 1290.55 941.891"
	 xml:space="preserve">
<g>
	<g>
		<path fill="#0071AA" d="M-652.548,86.017v47.964c0,42.534-21.842,66.6-78.884,66.6c-56.597,0-78.506-24.065-78.506-66.6V-47.196
			H-30.83v181.178c0,42.534-21.774,66.6-78.245,66.6c-57.644,0-79.257-24.065-79.257-66.6V86.017h-153.404v836.377
			c0,42.539-22.249,66.693-78.672,66.693c-56.609,0-78.563-24.16-78.563-66.693V86.017H-652.548z"/>
	</g>
	<g>
		<path fill="#75C043" d="M1003.792,922.422c0,42.574-23.55,66.666-79.326,66.666c-57.058,0-80.685-24.092-80.685-66.666V496.146
			L534.764,155.258V19.373c0-42.552,21.472-66.57,78.475-66.57c55.575,0,79.189,24.014,79.189,66.569v90.59l232.039,254.412
			l231.14-254.412v-90.59c0-42.552,23.559-66.569,78.501-66.569c57.09,0,80.023,24.014,80.023,66.569v135.885l-310.338,340.891
			V922.422z"/>
	</g>
	<text transform="matrix(1.075 0 0 1 -347.3813 909.6621)" font-family="'OCRAStd'" font-size="450">ekno</text>
	<text transform="matrix(1.075 0 0 1 987.9683 909.6621)" font-family="'OCRAStd'" font-size="450">azılım</text>
</g>
</svg>
